<?xml version="1.0" encoding="iso-8859-1"?>
<!-- Uploaded to: SVG Repo, www.svgrepo.com, Generator: SVG Repo Mixer Tools -->
<svg version="1.1" id="Layer_1" xmlns="http://www.w3.org/2000/svg" xmlns:xlink="http://www.w3.org/1999/xlink" 
	 viewBox="0 0 512 512" xml:space="preserve">
<path style="fill:#BF0F36;" d="M291.68,193.883c-50.108,0-90.874-40.766-90.874-90.874s40.766-90.874,90.874-90.874
	s90.874,40.766,90.874,90.874S341.788,193.883,291.68,193.883z"/>
<path style="fill:#9D092B;" d="M291.68,193.883c0-43.634,0-148.103,0-181.749c50.108,0,90.874,40.766,90.874,90.874
	S341.788,193.883,291.68,193.883z"/>
<polygon style="fill:#F1F1F1;" points="329.543,88.755 305.932,65.144 291.68,79.398 277.426,65.144 253.815,88.755 
	268.069,103.009 253.815,117.262 277.426,140.872 291.68,126.62 305.932,140.872 329.543,117.262 315.291,103.009 "/>
<rect x="32.731" y="272.634" transform="matrix(-0.6405 -0.768 0.768 -0.6405 -63.9396 548.728)" style="fill:#F4DA49;" width="127.481" height="33.392"/>
<rect y="203.999" style="fill:#8B8B8B;" width="33.391" height="36.374"/>
<rect y="96.501" style="fill:#444444;" width="33.391" height="36.374"/>
<rect x="50.087" y="150.25" style="fill:#6F6F6F;" width="33.391" height="36.374"/>
<path style="fill:#F4DA49;" d="M456.42,321.579l-48.475-97.899h-232.53l-48.476,97.899H0v139.33h512v-139.33H456.42z"/>
<polygon style="fill:#E69824;" points="512,321.579 456.42,321.579 407.945,223.681 291.68,223.681 291.68,460.909 512,460.909 "/>
<polygon style="fill:#67B5F8;" points="419.16,321.579 308.375,321.579 308.375,257.072 387.219,257.072 "/>
<polygon style="fill:#C2E2FD;" points="196.141,257.072 274.984,257.072 274.984,321.579 164.198,321.579 "/>
<path style="fill:#444444;" d="M408.681,499.866c-30.687,0-55.652-24.966-55.652-55.652s24.966-55.652,55.652-55.652
	s55.652,24.966,55.652,55.652S439.367,499.866,408.681,499.866z"/>
<path style="fill:#6F6F6F;" d="M106.734,499.866c-30.687,0-55.652-24.966-55.652-55.652s24.966-55.652,55.652-55.652
	s55.652,24.966,55.652,55.652S137.421,499.866,106.734,499.866z"/>
</svg>